<?xml version="1.0" standalone="no"?>
<!DOCTYPE svg PUBLIC "-//W3C//DTD SVG 20010904//EN"
 "http://www.w3.org/TR/2001/REC-SVG-20010904/DTD/svg10.dtd">
<svg version="1.0" xmlns="http://www.w3.org/2000/svg"
 width="210.000000pt" height="217.000000pt" viewBox="0 0 210.000000 217.000000"
 preserveAspectRatio="xMidYMid meet">

<g transform="translate(0.000000,217.000000) scale(0.100000,-0.100000)"
fill="#000000" stroke="none">
<path d="M964 1686 c-11 -28 1 -51 24 -49 12 2 22 -2 22 -7 0 -13 37 -13 45 1
4 6 14 8 23 4 18 -7 32 11 32 43 0 27 -9 27 -48 5 -29 -17 -31 -17 -50 0 -23
21 -41 22 -48 3z"/>
<path d="M982 1585 c3 -17 11 -20 53 -20 42 0 50 3 53 20 2 18 -3 20 -53 20
-50 0 -55 -2 -53 -20z"/>
<path d="M980 1511 c0 -23 39 -35 81 -26 20 5 29 13 29 26 0 16 -7 19 -55 19
-47 0 -55 -3 -55 -19z"/>
<path d="M736 1445 c-52 -18 -144 -111 -215 -215 -141 -210 -197 -606 -108
-765 27 -48 56 -57 156 -45 124 14 225 56 283 117 59 62 119 249 117 367 -2
145 -31 164 -41 26 -8 -124 -31 -220 -71 -300 -54 -108 -139 -155 -300 -167
-65 -5 -80 -3 -96 11 -60 55 -57 344 6 541 63 199 249 420 334 398 24 -7 55
-64 69 -126 21 -97 53 -136 43 -54 -21 178 -78 247 -177 212z"/>
<path d="M980 1441 c0 -23 39 -35 81 -26 20 5 29 13 29 26 0 16 -7 19 -55 19
-47 0 -55 -3 -55 -19z"/>
<path d="M1274 1453 c-53 -10 -92 -91 -107 -220 -10 -82 22 -43 43 54 14 62
45 119 69 126 65 17 205 -121 288 -287 99 -197 130 -561 55 -648 -19 -23 -98
-24 -192 -2 -168 38 -241 148 -270 409 -13 112 -18 135 -29 135 -22 0 -23
-129 -3 -227 45 -221 100 -295 257 -348 64 -21 194 -36 231 -26 80 21 113 207
79 433 -31 209 -107 369 -239 506 -77 81 -125 105 -182 95z"/>
<path d="M982 1373 c2 -14 15 -19 56 -21 47 -3 52 -1 52 17 0 19 -6 21 -56 21
-47 0 -55 -3 -52 -17z"/>
<path d="M980 1299 c0 -20 41 -32 81 -24 18 4 29 13 29 24 0 14 -10 17 -55 17
-45 0 -55 -3 -55 -17z"/>
<path d="M980 1231 c0 -21 39 -33 83 -24 18 4 27 12 27 24 0 16 -8 19 -55 19
-47 0 -55 -3 -55 -19z"/>
<path d="M634 1174 c3 -9 6 -20 6 -25 0 -5 16 -27 36 -49 34 -37 35 -40 14
-40 -23 0 -90 -59 -90 -80 0 -6 14 0 30 14 41 34 100 49 165 41 l53 -7 -43
-57 c-63 -82 -95 -109 -161 -136 -52 -22 -55 -25 -28 -25 17 0 50 7 73 15 22
8 41 11 41 7 0 -13 -42 -76 -82 -124 -22 -27 -36 -48 -31 -48 24 0 89 59 124
112 l39 61 0 -35 c0 -20 8 -46 18 -58 18 -22 18 -21 14 41 -7 119 54 227 164
289 l57 32 51 -28 c68 -36 112 -79 144 -139 22 -42 26 -63 27 -132 0 -62 3
-79 12 -71 7 5 16 28 20 51 l8 41 35 -53 c31 -49 100 -111 122 -111 5 0 -12
25 -37 57 -47 57 -80 112 -72 119 2 2 20 -3 40 -11 20 -8 51 -15 69 -15 30 0
28 2 -26 25 -66 27 -98 54 -161 136 l-43 57 53 7 c65 8 124 -7 165 -41 16 -14
30 -21 30 -16 0 20 -42 61 -75 73 l-34 13 34 38 c19 21 35 42 35 47 0 5 3 18
7 28 4 10 -19 -5 -50 -33 -71 -65 -127 -82 -200 -60 -68 20 -97 42 -97 71 0
24 -3 25 -54 25 -52 0 -55 -1 -58 -27 -2 -22 -13 -33 -51 -52 -89 -44 -187
-24 -255 53 -33 38 -48 46 -38 20z"/>
</g>
</svg>
